HIERARCHY
ROOT Hips
{
	OFFSET 0.00 0.00 0.00
	CHANNELS 6 Xposition Yposition Zposition Xrotation Yrotation Zrotation
	JOINT LeftUpLeg
	{
		OFFSET 3.64953 0.00000 0.00000
		CHANNELS 3 Xrotation Yrotation Zrotation
		JOINT LeftLeg
		{
			OFFSET 0.00000 -15.70580 0.00000
			CHANNELS 3 Xrotation Yrotation Zrotation
			JOINT LeftFoot
			{
				OFFSET 0.00000 -15.41867 0.00000
				CHANNELS 3 Xrotation Yrotation Zrotation
				JOINT LeftToeBase
				{
					OFFSET 0.00000 -1.53543 5.73033
					CHANNELS 3 Xrotation Yrotation Zrotation
					End Site
					{
						OFFSET 0.00000 0.00000 2.95275
					}
				}
			}
		}
	}
	JOINT RightUpLeg
	{
		OFFSET -3.64953 0.00000 0.00000
		CHANNELS 3 Xrotation Yrotation Zrotation
		JOINT RightLeg
		{
			OFFSET 0.00000 -15.70580 0.00000
			CHANNELS 3 Xrotation Yrotation Zrotation
			JOINT RightFoot
			{
				OFFSET 0.00000 -15.41867 0.00000
				CHANNELS 3 Xrotation Yrotation Zrotation
				JOINT RightToeBase
				{
					OFFSET 0.00000 -1.53543 5.73033
					CHANNELS 3 Xrotation Yrotation Zrotation
					End Site
					{
						OFFSET 0.00000 0.00000 2.95275
					}
				}
			}
		}
	}
	JOINT Spine
	{
		OFFSET 0.00000 0.03937 0.00000
		CHANNELS 3 Xrotation Yrotation Zrotation
		JOINT Spine1
		{
			OFFSET 0.00000 10.24829 0.00000
			CHANNELS 3 Xrotation Yrotation Zrotation
			JOINT Neck
			{
				OFFSET 0.00000 7.82687 0.00000
				CHANNELS 3 Xrotation Yrotation Zrotation
				JOINT Head
				{
					OFFSET 0.00000 6.90715 0.00000
					CHANNELS 3 Xrotation Yrotation Zrotation
					End Site
					{
						OFFSET 0.00000 4.52755 0.00000
					}
				}
			}
			JOINT LeftShoulder
			{
				OFFSET 0.00000 7.82687 0.00000
				CHANNELS 3 Xrotation Yrotation Zrotation
				JOINT LeftArm
				{
					OFFSET 6.71018 -0.00002 0.00000
					CHANNELS 3 Xrotation Yrotation Zrotation
					JOINT LeftForeArm
					{
						OFFSET 10.94419 -0.00004 0.00000
						CHANNELS 3 Xrotation Yrotation Zrotation
						JOINT LeftHand
						{
							OFFSET 8.52010 -0.00003 0.00000
							CHANNELS 3 Xrotation Yrotation Zrotation
							JOINT LeftHandThumb
							{
								OFFSET 0.00000 0.00000 0.00000
								CHANNELS 3 Xrotation Yrotation Zrotation
								End Site
								{
									OFFSET 0.00000 0.00000 3.93700
								}
							}
							JOINT L_Wrist_End
							{
								OFFSET 3.93700 -0.00001 0.00000
								CHANNELS 3 Xrotation Yrotation Zrotation
							}
						}
					}
				}
			}
			JOINT RightShoulder
			{
				OFFSET 0.00000 7.82687 0.00000
				CHANNELS 3 Xrotation Yrotation Zrotation
				JOINT RightArm
				{
					OFFSET -6.71018 -0.00002 0.00000
					CHANNELS 3 Xrotation Yrotation Zrotation
					JOINT RightForeArm
					{
						OFFSET -10.94419 -0.00004 0.00000
						CHANNELS 3 Xrotation Yrotation Zrotation
						JOINT RightHand
						{
							OFFSET -8.52010 -0.00003 0.00000
							CHANNELS 3 Xrotation Yrotation Zrotation
							JOINT RightHandThumb
							{
								OFFSET 0.00000 0.00000 0.00000
								CHANNELS 3 Xrotation Yrotation Zrotation
								End Site
								{
									OFFSET 0.00000 0.00000 3.93700
								}
							}
							JOINT R_Wrist_End
							{
								OFFSET -5.39369 -0.00002 0.00000
								CHANNELS 3 Xrotation Yrotation Zrotation
							}
						}
					}
				}
			}
		}
	}
}
MOTION
Frames: 18
Frame Time: 0.008333
 -23.0163 31.7439 16.4586 0.5305 38.9195 -4.6486 0.6883 4.7632 -7.4476 23.6769 0.0000 -0.0000 -25.7730 -4.1312 7.3876 4.1053 0.0000 0.0000 -28.3062 -3.6355 3.1148 21.0861 -0.0000 -0.0000 -17.3263 2.8831 16.5719 -2.7054 -0.0000 0.0000 -2.7311 0.2120 -1.0177 12.8706 -1.6302 -0.1314 4.0119 1.0051 -3.5871 10.0930 -3.0598 7.7894 19.3078 9.2956 -5.0346 -21.1229 -44.5368 -64.0323 -0.0001 -25.0907 -0.0000 -8.5755 -1.1977 -11.6808 -0.0000 0.0000 -0.0000 -0.0000 0.0000 -0.0000 14.6692 -19.2736 4.8217 -0.9352 21.6713 69.2969 -0.0001 14.4160 0.0000 -28.8896 -3.4301 10.3773 -0.0000 0.0000 0.0000 -0.0000 0.0000 0.0000
 -23.2685 31.8339 16.2208 0.7275 37.8812 -4.8364 0.0173 5.4203 -7.3277 23.3200 -0.0000 0.0000 -25.0975 -3.8576 7.2878 4.0882 0.0000 0.0000 -28.9250 -2.0778 3.0981 23.2428 0.0000 -0.0000 -17.6193 3.0823 15.7297 -2.4979 0.0000 0.0000 -2.6737 0.2849 -1.0259 12.6635 -1.5311 -0.0395 4.2900 1.0174 -3.5987 9.8640 -3.0109 7.8843 19.3309 9.3690 -4.8829 -20.9617 -44.2441 -64.6047 -0.0001 -24.8647 -0.0000 -8.7681 -1.2825 -11.8018 0.0000 -0.0000 0.0000 0.0000 -0.0000 0.0000 14.9735 -19.1849 4.9616 -1.7265 22.7951 69.1642 -0.0001 14.6865 0.0000 -28.9065 -3.2842 10.1677 -0.0000 -0.0000 0.0000 -0.0000 -0.0000 0.0000
 -23.5038 31.9318 15.9991 0.6945 36.8358 -4.9288 -0.3639 6.2357 -7.1108 22.8393 -0.0000 0.0000 -24.3508 -3.7590 7.2858 4.0462 0.0000 -0.0000 -29.2309 -0.6723 3.1277 25.3256 -0.0000 0.0000 -17.8194 3.2765 14.9371 -2.3890 0.0000 0.0000 -2.6152 0.3231 -0.9681 12.6891 -1.4762 0.0310 4.4050 1.1247 -3.6560 9.8865 -2.9269 8.0316 19.4468 9.4935 -4.9135 -20.7546 -44.0135 -64.9082 -0.0001 -24.6812 -0.0000 -9.2269 -1.3001 -12.1911 -0.0000 0.0000 0.0000 -0.0000 0.0000 0.0000 14.6650 -18.9286 4.8412 -1.9922 23.6099 69.0953 -0.0001 15.2202 0.0000 -28.5557 -3.3774 9.9012 -0.0000 -0.0000 -0.0000 -0.0000 -0.0000 -0.0000
 -23.7358 32.0298 15.7803 0.6944 35.9043 -5.0836 -0.8326 6.7995 -6.8668 22.4528 -0.0000 0.0000 -23.6661 -3.5594 7.1064 4.1692 -0.0000 -0.0000 -29.4625 0.5737 3.1501 27.3687 -0.0000 0.0000 -17.9766 3.3011 14.2551 -2.2169 -0.0000 0.0000 -2.5350 0.3143 -0.8889 12.6122 -1.4648 0.1228 4.5246 1.2461 -3.7305 10.0484 -2.8840 8.2197 19.4877 9.5911 -4.8676 -20.4414 -43.7825 -65.2877 -0.0001 -24.4668 -0.0000 -9.6872 -1.2025 -12.5519 -0.0000 -0.0000 -0.0000 -0.0000 -0.0000 -0.0000 14.5438 -18.7820 4.7856 -2.4705 24.5140 69.0538 -0.0001 15.6490 0.0000 -28.2647 -3.2630 9.7059 0.0000 -0.0000 0.0000 0.0000 -0.0000 0.0000
 -23.9638 32.1272 15.5662 0.6792 35.0383 -5.2580 -1.2594 7.2941 -6.5860 22.0083 -0.0000 0.0000 -23.0465 -3.3753 6.6338 4.4593 0.0000 0.0000 -29.5941 1.5886 3.1646 29.3868 -0.0000 0.0000 -18.1218 3.2787 13.5344 -2.1056 -0.0000 0.0000 -2.3918 0.2957 -0.7852 12.4202 -1.4637 0.2158 4.6452 1.3654 -3.7641 10.3050 -2.8671 8.3461 19.5591 9.6783 -4.8211 -20.0040 -43.7101 -65.5836 -0.0001 -24.1812 -0.0000 -10.1978 -1.2339 -12.9106 0.0000 0.0000 -0.0000 0.0000 0.0000 -0.0000 14.4370 -18.7197 4.7275 -2.9385 25.3489 69.0396 -0.0001 16.1431 0.0000 -27.8506 -3.2150 9.4832 -0.0000 0.0000 -0.0000 -0.0000 0.0000 -0.0000
 -24.1790 32.2256 15.3593 0.5793 34.1975 -5.3679 -1.5438 7.7194 -6.3464 21.4614 0.0000 -0.0000 -22.2762 -3.0048 6.6492 4.4183 0.0000 0.0000 -29.5475 2.4822 3.1217 31.3496 -0.0000 0.0000 -18.2728 3.2805 12.9128 -1.9528 0.0000 0.0000 -2.3140 0.2701 -0.6859 12.4318 -1.4727 0.2984 4.6539 1.4930 -3.7370 10.6496 -2.8444 8.3697 19.5229 9.7634 -4.7780 -19.4798 -43.7654 -65.8040 -0.0001 -23.8661 -0.0000 -10.6816 -1.1019 -13.3819 0.0000 -0.0000 0.0000 0.0000 -0.0000 0.0000 14.0325 -18.6378 4.5504 -3.3124 25.9369 69.1435 -0.0001 16.6325 0.0000 -27.3058 -3.0563 9.4850 0.0000 0.0000 0.0000 0.0000 0.0000 0.0000
 -24.4063 32.3179 15.1530 0.6193 33.4916 -5.6876 -2.0004 8.1610 -5.9206 21.0102 0.0000 -0.0000 -21.5870 -2.7614 6.5972 4.1365 0.0000 0.0000 -29.5510 3.1549 3.1548 33.3027 -0.0000 0.0000 -18.3667 3.1056 12.2716 -1.7159 0.0000 0.0000 -2.2525 0.2293 -0.5379 12.2734 -1.4820 0.4642 4.8233 1.5597 -3.7307 10.8106 -2.9010 8.5096 19.4505 9.7024 -4.5717 -18.9751 -43.6325 -66.2188 -0.0001 -23.5886 -0.0000 -11.0197 -0.9221 -13.8697 -0.0000 -0.0000 -0.0000 -0.0000 -0.0000 -0.0000 14.2166 -18.6948 4.6160 -4.0600 26.7415 69.1512 -0.0001 17.3123 0.0000 -27.0058 -3.1722 9.1427 0.0000 0.0000 0.0000 0.0000 0.0000 0.0000
 -24.6109 32.4039 14.9533 0.5104 32.7227 -5.7816 -2.1800 8.5068 -5.7216 20.3387 0.0000 0.0000 -20.8422 -2.3372 6.8478 4.1538 0.0000 0.0000 -29.3790 3.8853 3.0593 35.3100 -0.0000 0.0000 -18.5739 2.8758 11.6019 -1.4882 0.0000 0.0000 -2.2309 0.2002 -0.4414 12.3509 -1.4988 0.5356 4.8080 1.6497 -3.7554 11.1142 -2.9164 8.6202 19.4092 9.7849 -4.4855 -18.4645 -43.8244 -66.4508 -0.0001 -23.2727 -0.0000 -11.2179 -0.7606 -14.3496 -0.0000 -0.0000 0.0000 -0.0000 -0.0000 0.0000 13.7864 -18.6564 4.3845 -4.4312 27.1444 69.3447 -0.0001 18.0597 0.0000 -26.5103 -3.2254 9.1114 -0.0000 0.0000 -0.0000 -0.0000 0.0000 -0.0000
 -24.8180 32.4836 14.7542 0.4344 31.9532 -5.9148 -2.3656 8.8784 -5.4941 19.5994 -0.0000 0.0000 -19.8264 -1.6388 8.0915 3.4298 0.0000 0.0000 -29.1906 4.4345 2.9740 37.3354 -0.0000 0.0000 -18.7576 2.5512 10.8398 -1.4320 -0.0000 -0.0000 -2.1967 0.1837 -0.3606 12.3442 -1.4976 0.6243 4.8516 1.7022 -3.7278 11.3179 -2.9295 8.7147 19.3271 9.8354 -4.3588 -17.8128 -44.0441 -66.6468 -0.0001 -23.0745 -0.0000 -11.3003 -0.4480 -14.7295 0.0000 -0.0000 0.0000 0.0000 -0.0000 0.0000 13.6554 -18.6087 4.3101 -4.9333 27.5787 69.4367 -0.0001 18.9704 0.0000 -26.3049 -3.3091 9.0076 -0.0000 -0.0000 0.0000 -0.0000 -0.0000 0.0000
 -25.0246 32.5503 14.5576 0.3899 31.1882 -6.0821 -2.5555 9.1834 -5.2500 18.9245 0.0000 0.0000 -19.2745 -1.4052 7.8349 3.7995 -0.0000 0.0000 -28.9957 4.9927 2.8952 39.4026 -0.0000 0.0000 -19.0312 2.1892 10.0247 -1.4264 -0.0000 0.0000 -2.1624 0.1806 -0.2877 12.2742 -1.4800 0.7247 4.9064 1.7390 -3.6596 11.4515 -2.9432 8.8128 19.2216 9.8901 -4.1445 -17.3047 -44.2623 -67.0458 -0.0001 -22.7142 -0.0000 -11.0527 -0.2175 -15.0855 0.0000 -0.0000 -0.0000 0.0000 -0.0000 -0.0000 13.5768 -18.6430 4.2430 -5.4476 28.0633 69.5283 -0.0001 19.9242 0.0000 -26.1906 -3.3365 9.0608 0.0000 0.0000 0.0000 0.0000 0.0000 0.0000
 -25.2306 32.6070 14.3594 0.3674 30.3992 -6.2290 -2.7716 9.4792 -5.0155 18.2389 -0.0000 0.0000 -19.2867 -0.9259 6.7874 5.7063 0.0000 0.0000 -28.8203 5.5248 2.7742 41.5135 -0.0000 0.0000 -19.3279 1.7582 9.3646 -0.2882 -0.0000 0.0000 -2.1527 0.2155 -0.2391 12.2187 -1.4309 0.8194 4.9118 1.8194 -3.5857 11.6049 -3.0847 8.8900 19.1762 9.9227 -3.9289 -16.8601 -44.5261 -67.4284 -0.0001 -22.4124 -0.0000 -10.7338 -0.0460 -15.4095 -0.0000 0.0000 -0.0000 -0.0000 0.0000 -0.0000 13.5940 -18.6966 4.2309 -6.0193 28.4934 69.6039 -0.0001 21.0110 0.0000 -26.2276 -3.3942 9.0669 -0.0000 -0.0000 0.0000 -0.0000 -0.0000 0.0000
 -25.4321 32.6535 14.1624 0.3569 29.5963 -6.3364 -2.9642 9.8945 -4.8373 17.5268 -0.0000 0.0000 -18.8782 -0.5307 6.6941 6.1360 -0.0000 -0.0000 -28.5661 5.7320 2.5942 43.5526 -0.0000 0.0000 -19.5865 1.1351 8.6914 -0.0407 0.0000 0.0000 -2.1868 0.2521 -0.2295 12.1935 -1.3799 0.9025 4.9506 1.8299 -3.5332 11.6324 -3.1789 8.9749 19.0925 9.9289 -3.7155 -16.2931 -44.7998 -67.7273 -0.0001 -22.2184 -0.0000 -10.4573 0.1629 -15.6344 -0.0000 0.0000 0.0000 -0.0000 0.0000 0.0000 13.5967 -18.6798 4.2087 -6.5573 28.8209 69.6773 -0.0001 22.1587 0.0000 -26.2091 -3.3940 9.1947 -0.0000 0.0000 0.0000 -0.0000 0.0000 0.0000
 -25.6354 32.6904 13.9660 0.3895 28.7535 -6.4448 -3.2028 10.3779 -4.6690 16.8335 -0.0000 0.0000 -18.4236 -0.1520 6.8573 6.2682 0.0000 -0.0000 -28.3428 6.1027 2.4124 45.6532 -0.0000 0.0000 -19.6311 0.4122 7.6479 -0.5277 0.0000 0.0000 -2.2375 0.3248 -0.2487 12.1296 -1.2927 0.9840 4.9471 1.8364 -3.4477 11.6927 -3.3038 9.0127 19.0496 9.9342 -3.5339 -15.7508 -45.1020 -67.9807 -0.0001 -22.0215 -0.0000 -10.2512 0.2594 -15.8418 -0.0000 -0.0000 0.0000 -0.0000 -0.0000 0.0000 13.5725 -18.7358 4.1818 -7.0995 29.2176 69.7794 -0.0001 23.2445 0.0000 -26.3150 -3.3338 9.3549 0.0000 0.0000 0.0000 0.0000 0.0000 0.0000
 -25.8341 32.7186 13.7766 0.3281 27.9161 -6.4867 -3.3316 10.8665 -4.5145 16.1422 0.0000 0.0000 -18.0705 0.1890 6.7611 6.7028 0.0000 0.0000 -27.9537 6.3616 2.1878 47.6768 -0.0000 0.0000 -19.8834 -0.2874 6.9609 -0.3858 0.0000 0.0000 -2.2720 0.3437 -0.2695 12.1406 -1.2661 1.0185 4.9375 1.8403 -3.3985 11.6813 -3.3205 9.0561 19.0278 10.0564 -3.4162 -15.1914 -45.4667 -68.1628 -0.0001 -21.8339 -0.0000 -10.0681 0.3051 -15.9173 -0.0000 -0.0000 0.0000 -0.0000 -0.0000 0.0000 13.4625 -18.6138 4.1082 -7.5021 29.4890 69.8781 -0.0001 24.5201 0.0000 -26.3359 -3.3413 9.5267 -0.0000 0.0000 -0.0000 -0.0000 0.0000 -0.0000
 -26.0383 32.7376 13.5784 0.3842 27.0926 -6.5303 -3.6269 11.3277 -4.3971 15.5513 0.0000 -0.0000 -17.8465 0.5564 6.4303 7.2055 0.0000 0.0000 -27.6601 6.6059 1.9172 49.6871 -0.0000 0.0000 -20.0951 -1.0162 6.1804 -0.2597 0.0000 0.0000 -2.3332 0.4245 -0.3796 12.0581 -1.1673 1.0912 4.9430 1.7555 -3.2927 11.6182 -3.3987 9.0719 19.0329 10.0635 -3.2565 -14.6804 -45.8828 -68.3651 -0.0001 -21.6233 -0.0000 -10.3277 0.1371 -15.7844 0.0000 0.0000 0.0000 0.0000 0.0000 0.0000 13.5921 -18.6636 4.2244 -7.9927 29.9357 69.7948 -0.0001 25.8966 0.0000 -26.4604 -3.4541 9.6999 -0.0000 0.0000 0.0000 -0.0000 0.0000 0.0000
 -26.2395 32.7527 13.3903 0.3320 26.2574 -6.5502 -3.8084 11.8176 -4.2439 14.9642 -0.0000 0.0000 -17.7053 0.9331 6.1261 7.8387 0.0000 0.0000 -27.1597 6.7474 1.6483 51.5701 -0.0000 0.0000 -20.3584 -1.6368 5.5328 -0.0053 0.0000 0.0000 -2.3815 0.4440 -0.4377 12.0667 -1.1457 1.0979 4.8507 1.7984 -3.1912 11.7077 -3.4052 9.0354 19.0297 10.2041 -3.2095 -13.9860 -46.4072 -68.3507 -0.0001 -21.3708 -0.0000 -10.0626 -0.1701 -15.7329 0.0000 0.0000 -0.0000 0.0000 0.0000 -0.0000 13.4168 -18.5268 4.1606 -8.2657 30.3156 69.8448 -0.0001 27.1638 0.0000 -26.6713 -3.2316 9.8147 0.0000 -0.0000 0.0000 0.0000 -0.0000 0.0000
 -26.4331 32.7616 13.1908 0.3881 25.4212 -6.4650 -4.0323 12.0936 -4.3137 14.2473 0.0000 -0.0000 -17.0136 1.5449 6.9930 7.2969 0.0000 0.0000 -26.7218 6.8802 1.2015 53.4021 -0.0000 0.0000 -20.5925 -2.2870 4.9721 0.1119 0.0000 -0.0000 -2.4843 0.5149 -0.6183 12.0321 -1.0680 1.1133 4.8320 1.7607 -3.1608 11.6416 -3.4925 9.0634 19.1288 10.2956 -3.2021 -13.5020 -46.9433 -68.3734 -0.0001 -21.1595 -0.0000 -9.3573 -0.1490 -15.6738 0.0000 -0.0000 0.0000 0.0000 -0.0000 0.0000 13.5406 -18.5680 4.3061 -8.7378 30.9124 69.7172 -0.0001 28.4813 0.0000 -26.8685 -3.1217 9.8389 -0.0000 0.0000 -0.0000 -0.0000 0.0000 -0.0000
 -26.6258 32.7681 13.0051 0.2983 24.7351 -6.4550 -4.2692 12.1527 -4.1808 13.8521 0.0000 0.0000 -16.9748 2.2310 6.3710 7.8635 -0.0000 0.0000 -26.0254 6.7555 0.8035 55.0780 -0.0000 0.0000 -20.8377 -2.7717 4.4029 0.8647 0.0000 0.0000 -2.5449 0.4863 -0.6498 12.1087 -1.1013 1.0984 4.8255 1.7469 -3.1335 11.5336 -3.5047 9.0633 19.2918 10.2891 -3.2347 -12.8794 -47.3034 -68.2009 -0.0001 -21.1320 -0.0000 -9.6241 -0.2023 -15.3530 -0.0000 0.0000 0.0000 -0.0000 0.0000 0.0000 13.4425 -18.4457 4.3005 -9.1335 31.0942 69.7989 -0.0001 29.8624 0.0000 -26.7934 -3.2345 10.0528 -0.0000 0.0000 0.0000 -0.0000 0.0000 0.0000
